<svg width="512" height="512" viewBox="0 0 512 512" fill="none" xmlns="http://www.w3.org/2000/svg">
    <path fill="#cc0099" d="M316.666,276.309c0.228,0,0.458-0.003,0.687-0.008c13.736-0.327,23.263-10.637,23.663-11.076
		c2.173-2.39,1.995-6.089-0.394-8.261c-2.387-2.172-6.087-1.997-8.261,0.393c-0.066,0.071-6.641,7.044-15.286,7.25
		c-5.357,0.118-10.567-2.382-15.638-7.452c-2.282-2.283-5.988-2.283-8.27,0c-2.285,2.284-2.285,5.987,0,8.271
		C300.391,272.651,308.293,276.309,316.666,276.309z" />
    <path fill="#cc0099" d="M222.859,265.226c2.172-2.39,1.997-6.089-0.394-8.261c-2.389-2.174-6.09-1.998-8.261,0.393
		c-0.064,0.071-6.64,7.044-15.285,7.25c-5.293,0.124-10.566-2.38-15.636-7.452c-2.285-2.283-5.987-2.283-8.271,0
		c-2.284,2.284-2.284,5.987,0,8.271c7.224,7.224,15.125,10.882,23.499,10.882c0.228,0,0.458-0.003,0.687-0.008
		C212.934,275.974,222.461,265.664,222.859,265.226z" />
    <path fill="#cc0099" d="M246.809,371.345c22.868,0,39.658-15.02,39.908-15.249c2.383-2.182,2.544-5.882,0.362-8.263
		c-2.18-2.383-5.884-2.542-8.262-0.362c-0.075,0.069-7.589,6.869-19.124,10.313c-15.162,4.526-29.623,1.016-42.98-10.44
		c-2.452-2.103-6.144-1.821-8.247,0.632c-2.103,2.451-1.82,6.143,0.632,8.246C222.32,367.562,235.329,371.345,246.809,371.345z" />
    <path fill="#cc0099" d="M299.076,450.6v-43.814c13.763-8.305,26.429-20.047,37.41-34.906c0.122-0.165,0.213-0.344,0.316-0.519
		c14.663-12.377,146.632-131.209,55.224-285.146c-0.877-1.477-0.826-2.201-0.724-3.645c0.121-1.696,0.303-4.259-1.365-6.918
		c-29.804-47.552-79.993-73.74-141.323-73.74c-32.56,0-65.989,7.383-94.128,20.79c-26.936,12.834-44.607,29.305-48.756,45.363
		c-4.517,6.828-31.368,49.313-39.444,105.76c-5.107,35.695-1.544,69.472,10.589,100.379c15.129,38.539,43.641,72.571,84.743,101.12
		c0.787,0.547,1.552,1.125,2.305,1.664c0.56,0.4,1.113,0.814,1.666,1.222c8.607,10.391,18.105,19.038,28.216,25.788v46.285
		c-22.971,3.359-55.953,11.207-55.953,28.561c0,22.059,56.226,32.105,108.466,32.105c51.909,0,107.776-10.047,107.776-32.105
		C354.095,462.198,321.669,454.17,299.076,450.6z M159.517,33.263c26.214-12.489,58.689-19.652,89.097-19.652
		c29.495,0,81.209,7.046,118.461,50.595c-20.711-15.358-52.272-32.856-85.001-28.953c-3.207,0.382-5.497,3.293-5.115,6.5
		c0.383,3.207,3.3,5.502,6.499,5.114c46.803-5.584,93.784,40.743,98.837,45.889c37.427,63.387,39.974,127.911,7.547,191.791
		c-9.62,18.953-21.065,35.063-31.453,47.669c6.565-16.159,11.219-33.746,13.769-52.256l1.867-4.843
		c0.125-0.324,0.22-0.656,0.285-0.993c0.195-1.01,0.122-2.06-0.221-3.043c-0.284-0.811-0.596-1.619-0.909-2.427l-0.28-0.726
		c-0.481-1.26-0.993-2.516-1.519-3.771c-0.173-0.412-0.353-0.825-0.531-1.238c-0.371-0.859-0.753-1.717-1.144-2.574
		c-0.218-0.476-0.432-0.951-0.656-1.428c-0.447-0.95-0.909-1.898-1.381-2.845c-0.435-0.876-0.889-1.753-1.347-2.63
		c-0.249-0.475-0.494-0.949-0.749-1.423c-0.45-0.839-0.912-1.679-1.383-2.52c-0.107-0.19-0.215-0.38-0.323-0.57
		c-16.043-28.395-43.944-57.644-83.39-87.435c-1.291-0.977-2.586-1.95-3.886-2.918c-0.381-0.283-0.767-0.565-1.15-0.848
		c-29.245-21.633-60.821-40.79-89.339-56.477c-1.241-0.683-2.469-1.353-3.692-2.02c-0.094-0.052-0.188-0.102-0.282-0.153
		c-1.127-0.613-2.246-1.219-3.357-1.818c-0.109-0.059-0.219-0.118-0.328-0.177c-3.629-1.955-7.167-3.832-10.601-5.63
		c-0.045-0.024-0.09-0.047-0.136-0.071c-22.894-11.983-41.064-20.396-49.353-24.127C123.435,55.756,138.35,43.348,159.517,33.263z
		 M77.808,175.871c6.731-47.649,28.124-85.854,35.582-98.024c5.007,2.251,13.906,6.341,25.429,11.997
		c0.099,0.048,0.197,0.097,0.296,0.146c0.651,0.319,1.31,0.645,1.978,0.974c0.118,0.058,0.237,0.118,0.356,0.176
		c1.984,0.981,4.04,2.007,6.158,3.072c0.26,0.131,0.518,0.26,0.78,0.393c0.589,0.297,1.185,0.599,1.784,0.902
		c0.337,0.171,0.676,0.342,1.015,0.515c0.582,0.296,1.166,0.593,1.757,0.894c0.355,0.182,0.716,0.367,1.075,0.55
		c0.982,0.503,1.976,1.014,2.98,1.532c0.476,0.246,0.951,0.49,1.432,0.739c0.512,0.265,1.029,0.534,1.545,0.803
		c0.517,0.269,1.036,0.539,1.558,0.812c0.495,0.258,0.991,0.518,1.491,0.78c0.604,0.316,1.213,0.637,1.823,0.959
		c0.43,0.227,0.858,0.452,1.292,0.681c1,0.529,2.008,1.064,3.024,1.607c0.372,0.198,0.748,0.4,1.121,0.6
		c0.719,0.384,1.441,0.771,2.167,1.162c0.438,0.236,0.877,0.473,1.318,0.711c0.692,0.373,1.386,0.75,2.084,1.129
		c0.435,0.236,0.869,0.471,1.307,0.71c0.926,0.505,1.858,1.014,2.794,1.529c0.171,0.094,0.34,0.186,0.512,0.281
		c17.005,9.354,33.195,18.924,48.385,28.582c0.68,0.432,1.358,0.865,2.034,1.297c2.048,1.311,4.08,2.622,6.089,3.935
		c0.524,0.343,1.042,0.685,1.563,1.028c1.979,1.301,3.944,2.602,5.885,3.905c0.202,0.135,0.407,0.271,0.608,0.406
		c-1.993,4.165-4.078,8.219-6.241,12.165c-31.364,57.209-79.293,91.516-108.197,108.197c-0.996,0.575-1.971,1.129-2.92,1.663
		c-2.085,1.171-3.247,3.492-2.934,5.863c0.277,2.107,0.594,4.201,0.928,6.289c0.095,0.597,0.193,1.193,0.293,1.789
		c0.295,1.752,0.607,3.498,0.941,5.235c0.154,0.802,0.317,1.599,0.478,2.397c0.274,1.341,0.555,2.677,0.851,4.007
		c0.237,1.07,0.482,2.135,0.735,3.199c0.146,0.615,0.3,1.227,0.452,1.84c4.01,16.303,9.741,31.696,16.97,45.627
		C91.225,302.261,68.163,244.159,77.808,175.871z M175.115,371.365c-0.26-0.523-0.568-1.014-0.956-1.417
		c-18.955-23.156-32.114-54.636-37.28-89.058c1.016-0.589,2.055-1.199,3.114-1.829c0.291-0.174,0.594-0.359,0.888-0.536
		c0.771-0.463,1.542-0.925,2.334-1.41c0.422-0.258,0.858-0.532,1.286-0.797c0.682-0.422,1.36-0.84,2.057-1.278
		c0.485-0.305,0.982-0.627,1.474-0.94c0.654-0.417,1.304-0.828,1.969-1.259c0.534-0.345,1.079-0.706,1.619-1.061
		c0.641-0.421,1.278-0.836,1.929-1.269c0.566-0.377,1.141-0.769,1.713-1.155c0.639-0.431,1.274-0.858,1.92-1.302
		c0.596-0.409,1.201-0.834,1.804-1.253c0.635-0.442,1.267-0.881,1.909-1.334c0.624-0.441,1.255-0.897,1.885-1.349
		c0.633-0.454,1.264-0.906,1.903-1.371c0.645-0.47,1.295-0.954,1.946-1.435c0.635-0.47,1.269-0.938,1.909-1.419
		c0.662-0.498,1.329-1.009,1.997-1.519c0.638-0.487,1.274-0.973,1.916-1.471c0.677-0.525,1.357-1.063,2.038-1.6
		c0.639-0.505,1.279-1.01,1.922-1.525c0.69-0.554,1.383-1.119,2.077-1.684c0.64-0.522,1.279-1.044,1.922-1.577
		c0.702-0.582,1.406-1.175,2.112-1.769c0.64-0.541,1.28-1.082,1.922-1.633c0.709-0.609,1.42-1.227,2.132-1.848
		c0.642-0.561,1.285-1.125,1.928-1.696c0.713-0.633,1.426-1.274,2.14-1.92c0.646-0.584,1.291-1.171,1.937-1.766
		c0.716-0.659,1.432-1.326,2.149-1.999c0.644-0.604,1.287-1.212,1.931-1.827c0.719-0.687,1.437-1.379,2.155-2.078
		c0.642-0.625,1.284-1.257,1.925-1.893c0.719-0.713,1.437-1.43,2.154-2.156c0.641-0.648,1.281-1.304,1.922-1.964
		c0.714-0.736,1.427-1.476,2.14-2.226c0.641-0.675,1.281-1.358,1.92-2.044c0.708-0.76,1.415-1.522,2.12-2.294
		c0.639-0.701,1.276-1.41,1.912-2.121c0.702-0.785,1.403-1.57,2.102-2.369c0.634-0.724,1.264-1.459,1.895-2.194
		c0.694-0.809,1.387-1.619,2.077-2.441c0.632-0.753,1.259-1.519,1.887-2.284c0.681-0.83,1.361-1.658,2.037-2.501
		c0.629-0.784,1.251-1.58,1.875-2.376c0.666-0.85,1.333-1.698,1.994-2.562c0.624-0.815,1.242-1.645,1.861-2.473
		c0.65-0.869,1.301-1.735,1.945-2.618c0.62-0.851,1.232-1.717,1.847-2.581c0.631-0.886,1.263-1.767,1.887-2.665
		c0.615-0.887,1.221-1.792,1.83-2.692c0.609-0.902,1.222-1.797,1.825-2.711c0.613-0.93,1.213-1.88,1.818-2.823
		c0.583-0.91,1.171-1.812,1.747-2.735c0.612-0.98,1.21-1.982,1.813-2.977c0.553-0.914,1.112-1.818,1.657-2.743
		c0.617-1.047,1.218-2.116,1.824-3.178c0.513-0.9,1.035-1.788,1.54-2.699c0.643-1.159,1.269-2.343,1.899-3.519
		c0.45-0.841,0.909-1.668,1.352-2.518c0.728-1.397,1.435-2.821,2.144-4.243c0.326-0.656,0.664-1.298,0.987-1.959
		c0.012-0.025,0.025-0.05,0.038-0.076c54.092,37.811,90.06,75.305,105.147,109.789c0.095,0.219,0.189,0.438,0.283,0.657
		c0.335,0.777,0.656,1.552,0.969,2.327c0.082,0.203,0.162,0.405,0.242,0.608c-0.148,0.785-0.352,1.624-0.563,2.494
		c-0.347,1.423-0.705,2.896-0.919,4.49c-4.391,32.57-16.141,62.473-33.981,86.476c-0.75,1.008-1.155,2.232-1.155,3.488v0.243
		c-9.499,12.181-20.236,21.863-31.778,28.825c-0.873,0.029-1.742,0.242-2.54,0.664c-15.235,8.067-28.935,11.823-43.112,11.823
		c-11.164,0-21.674-2.278-33.596-7.409C199.782,395.399,186.627,385.099,175.115,371.365z M316.996,491.749
		c-18.766,4.839-43.866,7.505-70.678,7.505c-26.859,0-52.087-2.667-71.036-7.509c-21.006-5.367-25.733-11.259-25.733-12.9
		c0-3.503,12.802-12.811,50.843-17.656c2.92-0.372,5.109-2.857,5.109-5.801v-44.446c1.202,0.559,2.387,1.084,3.564,1.592
		c12.599,5.754,25.86,8.758,39.319,8.758c13.449,0,26.573-2.871,38.994-8.394v42.744c0,2.917,2.15,5.389,5.04,5.793
		c38.134,5.323,49.979,14.624,49.979,17.41C342.398,480.494,337.732,486.402,316.996,491.749z" />
    <path fill="#cc0099" d="M146.126,206.463c1.81-2.107,3.367-4.319,4.661-6.566c0.477,0.78,0.975,1.554,1.507,2.314
		c6.24,8.91,14.79,14.446,22.313,14.446c2.823,0,5.457-0.8,7.619-2.313c4.324-3.029,6.392-8.593,5.672-15.268
		c-0.596-5.522-3.024-11.563-6.837-17.009c-0.92-1.315-1.903-2.562-2.933-3.739c1.553-0.378,3.108-0.84,4.644-1.399
		c6.248-2.274,11.702-5.829,15.358-10.012c4.418-5.056,5.916-10.8,4.111-15.76c-2.226-6.117-8.887-9.769-17.819-9.769
		c-4.372,0-9.096,0.878-13.66,2.539c-1.407,0.512-2.765,1.099-4.08,1.733c0.164-1.533,0.258-3.099,0.258-4.691
		c0-15.454-7.549-27.108-17.558-27.108c-10.011,0-17.56,11.654-17.56,27.108c0,2.458,0.224,4.85,0.61,7.15
		c-0.571-0.228-1.147-0.449-1.734-0.655c-4.446-1.562-9.05-2.387-13.314-2.387c-9.129,0-15.888,3.727-18.081,9.97
		c-3.317,9.444,5.177,20.429,19.757,25.55c0.814,0.286,1.633,0.538,2.455,0.774c-0.694,0.706-1.371,1.441-2.027,2.205
		c-4.332,5.043-7.345,10.815-8.483,16.252c-1.376,6.572,0.133,12.314,4.137,15.753c2.385,2.049,5.473,3.132,8.931,3.132
		C131.184,218.714,139.634,214.02,146.126,206.463z M146.001,162.864c1.914-1.427,4.308-1.997,6.618-1.633
		c0.005,0.001,0.011,0.002,0.011,0.002c0.774,0.123,1.533,0.349,2.261,0.682l0.012,0.004c0.493,0.227,0.962,0.494,1.401,0.804
		l0.002,0.002c0.279,0.197,0.543,0.41,0.795,0.636c0.026,0.024,0.052,0.047,0.078,0.071c0.241,0.22,0.469,0.452,0.683,0.695
		c0.008,0.01,0.018,0.019,0.027,0.029c0.674,0.777,1.204,1.664,1.572,2.617c0.017,0.043,0.032,0.087,0.048,0.13
		c0.097,0.265,0.181,0.534,0.252,0.808c0.017,0.066,0.035,0.13,0.05,0.196c0.062,0.263,0.109,0.529,0.148,0.799
		c0.01,0.069,0.023,0.136,0.031,0.205c0.039,0.333,0.062,0.669,0.062,1.007c0,0.667-0.085,1.343-0.259,2.067
		c-0.003,0.011-0.002,0.023-0.004,0.034c-0.084,0.34-0.187,0.673-0.309,0.996c-0.004,0.01-0.01,0.017-0.013,0.027
		c-1.118,2.94-3.746,5.04-6.78,5.553c-0.06,0.01-0.122,0.118-0.183,0.127c-0.408,0.06-0.821,0.197-1.239,0.197h-0.005
		c-0.004,0-0.008,0-0.008,0c-0.394,0-0.774-0.132-1.15-0.181c-0.027-0.004-0.051-0.063-0.078-0.066
		c-2.618-0.363-4.913-1.901-6.296-4.177c-0.006-0.01-0.014-0.031-0.02-0.041c-0.112-0.186-0.218-0.38-0.316-0.575
		c-0.008-0.016-0.013-0.036-0.021-0.052c-0.151-0.305-0.284-0.617-0.399-0.93c-0.003-0.009-0.006-0.018-0.01-0.027
		c-0.103-0.284-0.187-0.574-0.26-0.865c-0.011-0.046-0.025-0.091-0.035-0.137c-0.06-0.26-0.103-0.522-0.139-0.786
		c-0.008-0.066-0.022-0.129-0.029-0.195c-0.036-0.321-0.057-0.643-0.057-0.969c0-0.29,0.017-0.576,0.044-0.86
		c0.014-0.139,0.039-0.277,0.059-0.415c0.02-0.139,0.037-0.278,0.064-0.414c0.036-0.181,0.083-0.359,0.13-0.538
		c0.023-0.087,0.042-0.176,0.067-0.262c0.061-0.206,0.133-0.407,0.209-0.607c0.02-0.053,0.038-0.108,0.059-0.161
		c0.09-0.223,0.19-0.442,0.297-0.657c0.013-0.025-0.122-0.052-0.109-0.076c0.122-0.237,0.251-0.47,0.251-0.696v-0.002
		c1.17-0.466,0.785-0.907,1.169-1.318c0,0,0.083-0.013,0.088-0.019c0.348-0.37,0.764-0.708,1.171-1.013
		C145.946,162.874,145.992,162.87,146.001,162.864z M175.518,204.762c-0.234,0.164-0.624,0.198-0.91,0.198
		c-2.961,0-8.43-3.316-12.732-9.459c-1.449-2.07-2.626-4.26-3.46-6.398c0.027-0.01,0.052-0.022,0.078-0.032
		c2.371-0.901,4.528-2.225,6.386-3.886c0.013-0.011,0.026-0.024,0.039-0.036c0.59-0.529,1.148-1.091,1.673-1.685
		c0.03-0.034,0.062-0.064,0.092-0.099c1.713,1.51,3.359,3.356,4.797,5.411c2.661,3.8,4.407,8.011,4.789,11.553
		C176.557,202.994,175.977,204.441,175.518,204.762z M174.763,154.919c3.296-1.199,6.636-1.834,9.659-1.834
		c4.143,0,6.522,1.237,6.827,2.073c0.192,0.527-0.164,2.043-1.927,4.062c-2.344,2.682-6.189,5.13-10.55,6.717
		c-2.409,0.877-4.841,1.451-7.155,1.698c-0.059-0.525-0.146-1.044-0.245-1.56c-0.038-0.203-0.081-0.404-0.126-0.605
		c-0.101-0.45-0.214-0.897-0.345-1.338c-0.074-0.251-0.157-0.497-0.239-0.744c-0.118-0.349-0.244-0.694-0.38-1.035
		c-0.089-0.223-0.177-0.447-0.274-0.666c-0.198-0.451-0.411-0.895-0.641-1.33c-0.102-0.193-0.212-0.379-0.319-0.568
		c-0.192-0.336-0.392-0.666-0.603-0.99c-0.1-0.155-0.195-0.313-0.3-0.464c-0.013-0.019-0.024-0.039-0.038-0.057
		C170.048,156.963,172.323,155.808,174.763,154.919z M149.383,125.559c1.79,0,5.862,5.822,5.862,15.412
		c0,3.093-0.429,6.071-1.219,8.635c-0.099-0.013-0.2-0.012-0.299-0.024c-0.445-0.054-0.896-0.083-1.349-0.108
		c-0.286-0.015-0.571-0.039-0.857-0.043c-0.094-0.001-0.183-0.014-0.277-0.014c-0.4,0-0.79,0.038-1.184,0.06
		c-0.241,0.014-0.483,0.015-0.723,0.037c-0.626,0.058-1.243,0.151-1.852,0.264c-0.102,0.019-0.207,0.027-0.309,0.048
		c-0.716,0.144-1.418,0.328-2.105,0.545c-0.021,0.006-0.043,0.01-0.064,0.017c-0.864-2.473-1.486-5.66-1.486-9.415
		C143.52,131.381,147.592,125.559,149.383,125.559z M110.339,158.925c0.305-0.868,2.755-2.151,7.046-2.151
		c2.959,0,6.223,0.597,9.438,1.726c2.102,0.738,4.086,1.674,5.847,2.746c-0.043,0.092-0.072,0.19-0.113,0.282
		c-0.191,0.422-0.36,0.855-0.522,1.292c-0.087,0.234-0.179,0.466-0.258,0.704c-0.15,0.454-0.272,0.917-0.39,1.385
		c-0.058,0.23-0.127,0.456-0.177,0.687c-0.109,0.506-0.186,1.023-0.256,1.542c-0.027,0.199-0.07,0.394-0.091,0.594
		c-0.077,0.718-0.12,1.446-0.12,2.184c0,0.44,0.014,0.879,0.042,1.315c-2.518-0.171-5.199-0.739-7.847-1.669
		C113.89,166.385,109.746,160.614,110.339,158.925z M137.254,198.841c-4.826,5.618-10.216,8.177-13.181,8.177
		c-0.286,0-0.987-0.031-1.309-0.307c-0.426-0.366-0.859-1.861-0.31-4.485c0.729-3.486,2.882-7.505,5.906-11.025
		c2.542-2.959,5.555-5.369,8.395-6.792c0.116,0.116,0.246,0.218,0.365,0.331c0.348,0.333,0.698,0.664,1.068,0.971
		c0.144,0.119,0.301,0.223,0.449,0.339c0.357,0.279,0.714,0.56,1.089,0.814c0.252,0.172,0.518,0.321,0.778,0.482
		c0.279,0.172,0.553,0.352,0.84,0.512c0.367,0.203,0.748,0.38,1.129,0.562c0.162,0.076,0.318,0.167,0.483,0.24
		C142.167,191.596,140.343,195.245,137.254,198.841z" />
</svg>
