<svg width="512" height="512" viewBox="0 0 512 512" fill="none" xmlns="http://www.w3.org/2000/svg">
<path fill="#cc0099" d="M438.084,290.679c-5.921-16.103-6.736-25.59-0.424-75.179c2.119-16.649,0.786-27.037-4.194-32.69
	c-2.72-3.09-6.486-4.722-10.89-4.722c-6.557,0-13.493,3.482-20.202,6.849c-3.345,1.679-6.504,3.265-8.911,4.017
	c-4.065,1.27-19.661,2.556-41.603,2.556c-9.512,0-19.661-0.24-29.945-0.757v-30.725c0-0.986-0.265-1.901-0.693-2.718
	c16.854-0.886,24.927-9.3,28.744-16.432C371.165,101.266,315.53,3.287,314.925,2.379c-1.432-2.148-4.096-3.111-6.574-2.381
	c-2.477,0.732-4.189,2.993-4.223,5.576c-0.005,0.346-0.636,34.813-15.532,57.357c-10.156,15.37-26.193,50.556-14.204,73.722
	c6.18,11.944,18.486,18.775,36.58,20.38c-0.523,0.88-0.843,1.897-0.843,2.995v30.009c-29.841-2.135-59.222-6.762-76.017-14.967
	c-4.677-2.285-8.662-3.396-12.181-3.396c-5.177,0-9.302,2.441-11.614,6.873c-7.263,13.922,6.805,48.06,11.398,56.975v108.076
	c-1.905-0.158-3.858-0.256-5.883-0.256c-9.85,0-20.537,1.925-30.908,5.568c-7.915,2.78-15.222,6.379-21.628,10.624
	c4.381-10.134,6.794-22.512,6.794-35.636c0-33.647-15.681-60.005-35.701-60.005c-20.019,0-35.701,26.357-35.701,60.005
	c0,11.021,1.695,21.523,4.864,30.656c-7.429-5.937-16.563-10.987-26.655-14.66c-10.642-3.874-21.602-5.903-31.693-5.903
	c-18.79,0-32.586,7.119-36.903,18.982c-3.492,9.592-0.373,20.718,8.785,31.194c8.322,9.522,20.89,17.819,35.391,23.097
	c9.209,3.352,18.652,5.549,27.569,6.082c-6.872,5.432-13.354,12.354-18.923,20.308c-8.851,12.641-14.472,26.527-15.827,39.1
	c-1.49,13.834,2.293,24.677,10.654,30.531c4.038,2.828,8.827,4.262,14.234,4.262h0.001c16.015,0,35.418-12.93,49.427-32.937
	c4.972-7.101,8.924-14.595,11.674-22.028c3.247,10.676,9.554,21.933,18.212,32.011c14.863,17.3,33.757,27.908,49.311,27.908h0.002
	c6.621,0,12.455-1.867,16.87-5.66c3.818-3.28,6.34-7.638,7.631-12.729c1.076,1.154,2.597,1.885,4.298,1.885h187.435
	c3.255,0,5.894-2.639,5.894-5.894V328.185c1.708,0.812,3.444,1.215,5.217,1.215h0.001c3.81,0,7.286-1.975,9.788-5.561
	C441.209,316.295,442.148,301.729,438.084,290.679z M284.86,131.234c-8.725-16.86,3.694-46.857,13.57-61.805
	c9.083-13.747,13.45-30.759,15.548-43.753c14.451,29.405,38.418,86.692,25.414,109.971c-3.94,7.051-11.362,10.299-22.764,9.936
	C300.205,145.061,289.517,140.233,284.86,131.234z M188.829,360.024c9.131-3.206,18.467-4.909,27.002-4.909
	c3.351,0,6.479,0.264,9.339,0.756c0.401,0.183,0.818,0.339,1.265,0.43c8.263,1.678,13.177,5.052,15.025,10.312
	c2.838,8.079-3.907,19.175-17.182,28.268c-0.582,0.398-1.077,0.895-1.474,1.454c-5.164,3.326-11.235,6.344-18.126,8.764
	c-9.12,3.203-18.448,4.841-26.975,4.841h-0.002c-2.292,0-4.492-0.067-6.587-0.307c0.563-1.931,0.997-3.916,1.286-5.948
	c0.003-0.021,0.005-0.042,0.008-0.062c0.124-0.879,0.217-1.767,0.287-2.663c0.016-0.197,0.303-0.394,0.316-0.591
	c0.06-0.926,0.371-1.856,0.371-2.797c0-0.006,0-0.012,0-0.017c0-0.004,0-0.008,0-0.012c0-0.019-0.273-0.038-0.273-0.057
	c-0.002-0.965-0.181-1.92-0.246-2.869c-0.017-0.261-0.105-0.521-0.127-0.781c-0.083-0.962-0.22-1.917-0.366-2.86
	c-0.01-0.067-0.042-0.132-0.052-0.199c-0.145-0.914-0.335-1.815-0.536-2.71c-0.049-0.217-0.103-0.434-0.155-0.65
	c-0.231-0.955-0.489-1.899-0.782-2.829c-0.015-0.047-0.033-0.093-0.049-0.14c-0.298-0.932-0.634-1.849-0.992-2.752
	c-0.047-0.121-0.094-0.242-0.143-0.362c-0.392-0.963-0.816-1.91-1.275-2.838c-0.004-0.008-0.008-0.015-0.012-0.022
	c-0.976-1.971-2.1-3.854-3.354-5.641C171.595,367.64,179.865,363.173,188.829,360.024z M111.584,371.921
	c0.022-0.015,0.038-0.037,0.06-0.053c1.51-1.061,3.116-1.992,4.804-2.778c0.061-0.025,0.124-0.037,0.184-0.064
	c3.088-1.411,6.305-2.303,9.601-2.666c0.028-0.003,0.056-0.008,0.084-0.011c0.476-0.051,0.955-0.087,1.436-0.116
	c0.08-0.004,0.158,0.063,0.239,0.058c0.548-0.029,1.097,0.033,1.649,0.033h0.01c0.758,0,1.51-0.04,2.26,0.013
	c0.16,0.012,0.32-0.016,0.48-0.002c0.742,0.065,1.481,0.131,2.212,0.248c0.068,0.011,0.135,0.015,0.202,0.027
	c0.736,0.122,1.466,0.265,2.189,0.441c0.055,0.013,0.112,0.022,0.167,0.036c0.787,0.195,1.567,0.418,2.336,0.675l0.001-0.001
	c3.149,1.05,6.136,2.609,8.875,4.65c0.077,0.057,0.16,0.097,0.239,0.149c1.384,1.052,2.675,2.218,3.867,3.48
	c0.029,0.032,0.047,0.069,0.077,0.1c3.07,3.279,5.365,7.108,6.793,11.241c0.015,0.044,0.03,0.088,0.045,0.131
	c0.138,0.405,0.267,0.814,0.389,1.225c0.025,0.085,0.049,0.171,0.073,0.257c0.108,0.376,0.209,0.755,0.302,1.135
	c0.031,0.128,0.06,0.258,0.089,0.387c0.08,0.344,0.156,0.691,0.224,1.038c0.035,0.175,0.063,0.351,0.095,0.528
	c0.055,0.308,0.109,0.618,0.155,0.928c0.034,0.232,0.06,0.466,0.089,0.698c0.032,0.263,0.068,0.526,0.094,0.791
	c0.03,0.309,0.05,0.621,0.071,0.933c0.013,0.196,0.032,0.391,0.042,0.587c0.025,0.514,0.039,1.031,0.04,1.551
	c-0.001,0.581-0.018,1.159-0.05,1.735c-0.007,0.133-0.021,0.264-0.03,0.396c-0.031,0.455-0.067,0.909-0.119,1.361
	c-0.013,0.116-0.029,0.23-0.044,0.346c-0.062,0.493-0.131,0.985-0.215,1.474c-0.008,0.049-0.017,0.097-0.026,0.146
	c-0.521,2.916-1.462,5.751-2.82,8.48c-0.064,0.13-0.116,0.264-0.171,0.397c-0.278,0.539-0.568,1.069-0.875,1.589
	c-0.075,0.106-0.16,0.203-0.228,0.316c-4.928,8.112-13.118,13.491-22.471,14.79c-0.241,0.033-0.47,0.01-0.7,0.071
	c-1.199,0.14-2.416,0.133-3.653,0.133c-0.012,0-0.025,0-0.037,0c-0.008,0-0.015,0.084-0.023,0.084
	c-0.771-0.002-1.537,0.007-2.299-0.051c-0.064-0.005-0.128,0.012-0.192,0.007c-11.905-0.99-22.471-8.827-26.773-20.133
	c-0.033-0.087-0.088-0.156-0.125-0.24c-0.392-1.057-0.728-2.14-1.007-3.247c-0.018-0.095-0.015-0.19-0.038-0.285
	c-0.603-2.509-0.909-4.984-0.909-7.363c0-0.606,0.021-1.209,0.055-1.81c0.007-0.119,0.019-0.236,0.028-0.355
	c0.035-0.5,0.078-0.998,0.137-1.493c0.012-0.098,0.025-0.196,0.038-0.294c0.07-0.551,0.152-1.099,0.251-1.644
	c0.004-0.025,0.009-0.051,0.013-0.076C100.248,383.919,104.808,376.703,111.584,371.921z M134.389,275.68
	c11.31,0,23.913,19.802,23.913,48.216c0,13.587-2.99,26.473-8.145,35.673c-1.517-0.821-3.091-1.544-4.709-2.182
	c-0.085-0.033-0.169-0.067-0.254-0.101c-0.732-0.283-1.474-0.55-2.225-0.793c-0.072-0.024-0.142-0.05-0.214-0.073
	c-0.809-0.258-1.628-0.496-2.457-0.707c-0.089-0.023-0.18-0.04-0.269-0.062c-0.691-0.171-1.39-0.326-2.094-0.463
	c-0.262-0.051-0.526-0.096-0.79-0.142c-0.546-0.096-1.095-0.183-1.648-0.258c-0.292-0.04-0.584-0.078-0.877-0.112
	c-0.562-0.064-1.128-0.115-1.697-0.158c-0.262-0.02-0.465-0.045-0.728-0.06c-0.823-0.047-1.25-0.077-2.43-0.077v0.077v0.077h-0.117
	c-0.976,0-1.941-0.033-2.901,0.031c-0.226,0.015-0.453-0.006-0.678,0.013c-2.03,0.167-4.021,0.456-5.962,0.896
	c-0.028,0.006-0.056,0.004-0.085,0.01c-1.038,0.237-2.064,0.498-3.072,0.808c-4.146-8.919-6.475-20.431-6.475-32.396
	C110.476,295.484,123.078,275.68,134.389,275.68z M25.96,376.262c-6.11-6.992-8.509-14.038-6.582-19.331
	c2.512-6.902,12.408-11.19,25.826-11.19c8.731,0,18.296,1.838,27.661,5.246c10.368,3.774,19.774,9.37,26.643,15.692
	c-8.043,7.849-13.049,18.795-13.049,30.894c0,0.028,0.002,0.056,0.002,0.085c0,0.021-0.001,0.041-0.001,0.062
	c0,1.15,0.05,2.458,0.15,3.628c-0.802,0.033-1.615,0.342-2.438,0.342h-0.002c-8.732,0-18.297-2.095-27.662-5.503
	C43.844,391.576,32.996,384.312,25.96,376.262z M109.954,467.846c-11.689,16.695-27.672,27.911-39.771,27.911
	c-2.94,0-5.454-0.716-7.473-2.13c-4.614-3.231-6.69-10.379-5.695-19.612c1.145-10.629,6.034-22.562,13.763-33.602
	c6.259-8.939,13.723-16.339,21.442-21.331c6.365,11.033,17.458,19.005,30.497,21.118
	C120.686,449.213,116.268,458.828,109.954,467.846z M207.997,497.901c-2.279,1.958-5.37,2.811-9.188,2.811h-0.001
	c-12.029,0-27.875-9.258-40.37-23.802c-10.432-12.143-17.084-26.281-17.792-37.568c9.45-2.49,17.64-8.109,23.395-15.678
	c10.251,3.401,21.455,11.421,30.674,22.151C213.232,467.367,216.577,490.53,207.997,497.901z M203.657,438.198
	c-5.702-6.638-12.011-12.318-18.527-16.811c7.671-0.691,15.653-2.425,23.456-5.165c4.654-1.635,9.039-3.54,13.128-5.651v59.022
	C218.512,459.318,212.418,448.396,203.657,438.198z M425.983,317.51c-0.705-0.349-2.789-1.732-5.928-6.804
	c-1.386-2.239-4.092-3.288-6.624-2.567c-2.534,0.721-4.282,3.034-4.282,5.669v170.4H233.503v-80.899
	c16.253-11.916,24.509-27.38,19.866-40.601c-2.807-7.991-9.877-13.841-19.866-16.914V234.017c0-1.206-0.349-2.352-1.039-3.342
	c-3.607-5.546-16.045-38.665-11.676-46.717c0.196-0.361,0.269-0.496,1.141-0.496c0.935,0,3.089,0.286,7.006,2.199
	c21.242,10.379,56.78,14.685,85.137,16.449c0.613,0.215,1.262,0.356,1.948,0.356c0.456,0,0.895-0.063,1.322-0.162
	c14.943,0.846,27.567,0.994,34.517,0.994c17.027,0,37.821-0.812,45.119-3.092c3.322-1.039,6.897-2.834,10.683-4.734
	c5.226-2.623,11.149-5.596,14.914-5.596c1.297,0,1.72,0.358,2.044,0.725c0.886,1.007,3.604,5.669,1.346,23.411
	c-6.639,52.163-5.659,62.479,1.054,80.736C430.563,304.379,428.157,315.43,425.983,317.51z"/>
</svg>
