<svg width="512" height="512" viewBox="0 0 512 512" fill="none" xmlns="http://www.w3.org/2000/svg">
	<path fill="#cc0099" d="M221.905,117.059c32.12,0,58.252-26.131,58.252-58.252S254.025,0.555,221.905,0.555
		c-32.119,0-58.251,26.131-58.251,58.252S189.785,117.059,221.905,117.059z M221.905,12.214c25.691,0,46.593,20.901,46.593,46.593
		S247.596,105.4,221.905,105.4s-46.592-20.901-46.592-46.593S196.214,12.214,221.905,12.214z"/>
	<path fill="#cc0099" d="M451.758,240.489c-32.121,0-58.252,26.132-58.252,58.252c0,32.121,26.132,58.252,58.252,58.252
		s58.252-26.132,58.252-58.252C510.01,266.62,483.879,240.489,451.758,240.489z M451.758,345.334
		c-25.691,0-46.593-20.902-46.593-46.594c0-25.691,20.902-46.593,46.593-46.593s46.593,20.902,46.593,46.593
		C498.351,324.432,477.449,345.334,451.758,345.334z"/>
	<path fill="#cc0099" d="M103.462,254.095c1.01,6.277,2.241,12.059,3.645,17.125c0.684,2.577,1.322,4.735,1.949,6.592
		c0.574,1.852,1.157,3.458,1.704,4.92c0.372,1.059,0.748,1.947,1.024,2.6c0.09,0.214,0.171,0.404,0.269,0.646l1.299,3.125
		c1.313,3.158,4.37,5.198,7.79,5.199h0.001c1.114,0,2.203-0.218,3.237-0.648c1.98-0.823,3.561-2.355,4.453-4.326l4.952-10.998
		c1.901-4.349,4.455-9.889,7.411-16.305c1.76-3.822,3.67-7.965,5.685-12.385c5.723-12.546,12.467-26.234,19.488-39.549
		c2.312-4.312,7.182-12.768,10.529-18.537c4.639,3.86,12.587,10.285,26.357,21.313c21.436,17.166,33.91,26.769,37.075,28.543
		c6.028,3.378,12.208,6.73,18.864,10.231c6.285,3.349,12.019,6.141,16.337,8.21l12.556,5.946c2.696,1.269,4.944,2.248,6.749,3.037
		l4.493,1.948c1.058,0.457,2.177,0.689,3.326,0.689c3.354,0,6.381-1.99,7.717-5.081c0.835-1.941,0.909-4.107,0.204-6.12
		l-1.364-3.862c-0.23-0.669-0.542-1.581-0.964-2.618c-0.547-1.424-1.158-2.98-1.925-4.73c-0.694-1.693-1.543-3.588-2.723-6.083
		c-2.066-4.481-4.693-9.572-7.838-15.186c-2.765-4.811-6.486-11.138-10.725-17.378c-5.781-8.625-30.037-37.661-44.53-55.008
		c-4.87-5.828-9.47-11.334-10.034-12.091c-1.877-2.655-3.952-5.202-6.246-7.651l-0.934-0.96c-0.039-0.041-0.079-0.081-0.119-0.12
		l-1.161-1.125c-0.818-0.773-1.665-1.537-2.523-2.27c-1.715-1.467-3.521-2.862-5.426-4.187l-1.273-0.863
		c-0.068-0.046-0.137-0.091-0.207-0.134l-1.682-1.038c-1.19-0.71-2.421-1.391-3.658-2.026c-2.481-1.274-5.063-2.399-7.69-3.35
		c-5.176-1.86-10.967-3.07-16.726-3.498c-1.515-0.118-2.58-0.128-3.708-0.14l-0.369-0.001c-1.158,0-2.326,0.029-3.472,0.089
		c-2.418,0.124-4.857,0.384-7.237,0.769c-1.23,0.196-1.949,0.354-2.712,0.521l-0.326,0.071c-0.887,0.198-1.774,0.414-2.652,0.647
		c-1.75,0.463-3.504,1.002-5.206,1.599c-1.904,0.665-2.963,1.128-4.083,1.617l-0.131,0.058c-1.201,0.53-2.39,1.095-3.59,1.711
		l-1.655,0.873c-0.608,0.332-1.339,0.743-1.699,0.968l-2.168,1.356c-0.056,0.036-0.112,0.072-0.166,0.108l-2.194,1.48
		c-0.654,0.455-1.563,1.103-2.094,1.532c-1.7,1.319-4.254,3.425-5.83,4.994l-2.072,2.036c-0.064,0.063-0.126,0.127-0.188,0.193
		l-1.619,1.745c-0.029,0.031-0.056,0.062-0.084,0.093l-1.542,1.735c-0.051,0.058-0.101,0.117-0.15,0.176l-2.486,3.07
		c-0.028,0.033-0.053,0.066-0.079,0.1c-0.399,0.521-0.762,1.019-1.112,1.515c-0.686,0.961-1.404,1.976-1.94,2.818
		c-2.179,3.304-3.966,6.341-5.639,9.589c-1.483,2.924-2.647,5.528-3.807,8.159c-0.023,0.052-0.046,0.103-0.066,0.156
		c-2.138,5.261-3.839,10.153-5.196,14.94c-2.517,8.8-4.242,17.716-5.28,27.259c-0.873,8.102-1.173,16.402-0.892,24.653
		C101.59,239.206,102.267,246.226,103.462,254.095z M113.866,209.185c0.965-8.873,2.567-17.152,4.902-25.321
		c1.237-4.363,2.791-8.833,4.752-13.666c1.08-2.451,2.163-4.871,3.484-7.474c1.462-2.836,3.048-5.531,5.041-8.554
		c0.433-0.681,1.078-1.588,1.664-2.411c0.27-0.382,0.537-0.748,0.827-1.129l2.288-2.825l2.908-3.203l2.004-1.969
		c0.963-0.96,2.971-2.671,4.861-4.138c0.197-0.16,0.717-0.547,1.452-1.06l2.037-1.372l2.083-1.304
		c0.245-0.15,0.717-0.408,1.031-0.58l1.52-0.802c0.941-0.483,1.92-0.949,2.895-1.379l0.114-0.051
		c0.99-0.433,1.773-0.777,3.268-1.299c1.423-0.499,2.884-0.953,4.344-1.339c0.731-0.194,1.465-0.382,2.17-0.538l0.311-0.085
		c0.616-0.135,1.137-0.285,2.068-0.433c1.977-0.32,3.993-0.602,5.99-0.706c0.947-0.049,1.913-0.209,2.871-0.209h0.103l0.153,0.138
		c1.042,0.01,1.795,0.153,2.936,0.242c4.743,0.352,9.47,1.336,13.655,2.839c2.151,0.778,4.276,1.705,6.319,2.754
		c1.02,0.524,2.034,1.086,2.938,1.623l1.499,0.926l1.111,0.752c1.529,1.064,3.025,2.219,4.445,3.434
		c0.713,0.611,1.411,1.239,2.037,1.831l1.846,1.835c1.853,1.979,3.588,4.108,5.151,6.321c0.568,0.807,2.65,3.314,10.615,12.847
		c13.404,16.044,38.355,45.91,43.814,54.055c4.019,5.915,7.453,11.744,10.249,16.61c2.964,5.294,5.452,10.111,7.415,14.366
		c1.127,2.385,1.905,4.121,2.523,5.632c0.02,0.047,0.039,0.094,0.06,0.14c0.527,1.201,0.981,2.323,1.391,3.372
		c-1.19-0.528-2.508-1.124-3.946-1.801l-12.519-5.929c-4.188-2.008-9.778-4.729-15.897-7.989
		c-6.592-3.467-12.682-6.77-18.619-10.097c-5.394-3.022-61.286-47.968-66.451-52.667c-1.001-1.047-2.376-1.702-3.871-1.791
		c-2.18-0.127-4.266,0.981-5.374,2.875c-0.424,0.724-10.44,17.841-14.259,24.962c-7.142,13.543-13.988,27.439-19.802,40.185
		c-2.009,4.405-3.911,8.534-5.665,12.343c-2.982,6.47-5.558,12.058-7.478,16.454l-1.821,4.041c-0.377-1.036-0.764-2.146-1.135-3.347
		c-0.016-0.05-0.032-0.1-0.049-0.15c-0.55-1.625-1.123-3.561-1.764-5.977c-1.305-4.712-2.444-10.069-3.377-15.873
		c-1.117-7.355-1.754-13.922-1.947-20.093C112.771,224.483,113.052,216.737,113.866,209.185z"/>
	<path fill="#cc0099" d="M478.074,381.232l-1.382-0.352c-0.672-0.171-1.346-0.354-2.02-0.537c-1.342-0.365-2.73-0.743-4.091-1.034
		c-0.556-0.126-1.112-0.256-1.669-0.387c-1.442-0.337-2.931-0.686-4.368-0.956l-5.875-1.187c-0.055-0.011-0.11-0.022-0.168-0.032
		l-7.33-1.26c-1.483-0.258-3.015-0.525-4.492-0.711l-5.826-0.821c-0.576-0.077-1.154-0.161-1.732-0.244
		c-1.382-0.2-2.81-0.406-4.184-0.534l-11.484-1.254c-0.057-0.006-0.113-0.011-0.169-0.015l-3.217-0.258
		c-1.622-2.069-3.424-4.594-4.046-6.024l-4.644-10.45c-0.022-0.047-0.043-0.094-0.065-0.14l-4.941-10.369l-5.117-10.238
		l-5.259-10.071c-1.151-2.157-2.325-4.297-3.498-6.439c-0.641-1.169-1.282-2.338-1.915-3.502c-1.189-2.194-2.432-4.355-3.633-6.444
		c-0.658-1.145-1.317-2.291-1.968-3.443c-7.689-13.612-21.605-22.3-37.274-23.243l-11.665-0.609
		c-3.141-0.166-6.29-0.244-9.335-0.319l-1.137-0.028c-0.945-0.022-1.891-0.048-2.837-0.073c-2.383-0.064-4.846-0.131-7.306-0.131
		l-10.633-0.067l-10.259,0.126c-5.77,0.059-11.586,0.276-17.211,0.486l-3.555,0.132c-1.577,0.084-3.154,0.164-4.731,0.244
		c-5.203,0.264-10.581,0.537-15.809,0.956c-6.565,0.416-13.184,1.027-19.586,1.617l-1.084,0.1
		c-6.205,0.629-13.422,1.375-20.58,2.297l-10.304,1.342l-10.132,1.512c-2.407,0.337-4.807,0.746-7.129,1.142
		c-1.06,0.181-2.121,0.362-3.186,0.537c-2.815,0.464-6.535,1.091-10.257,1.817c-6.709,1.213-13.241,2.575-20.555,4.119l-10.23,2.317
		l-10.218,2.495c-4.379,1.145-8.809,2.364-13.093,3.545c-2.391,0.659-4.783,1.317-7.283,1.996c-4.391,1.282-8.818,2.674-13.102,4.02
		c-2.383,0.749-4.766,1.498-7.15,2.231c-0.07,0.022-0.139,0.044-0.209,0.069l-10.088,3.523c-0.872,0.31-1.743,0.612-2.615,0.915
		c-2.497,0.868-5.078,1.765-7.595,2.784l-10.064,3.9c-2.241,0.881-4.472,1.837-6.629,2.763c-1.168,0.5-2.335,1.001-3.472,1.476
		c-3.419,1.404-6.801,2.967-10.234,4.57l-4.996,2.31c-0.053,0.024-0.105,0.049-0.156,0.075l-4.975,2.482
		c-7.855,3.9-14.335,7.491-20.391,11.304l-1.251,0.788c-1.962,1.234-3.325,3.159-3.837,5.419c-0.514,2.258-0.116,4.582,1.116,6.538
		c1.595,2.54,4.342,4.056,7.349,4.056c0.074,0,0.251-0.003,0.324-0.006l61.57-2.351l82.037-3.937l102.416-5.851
		c8.833-0.504,17.794-1.104,26.458-1.683c4.844-0.325,9.686-0.649,14.542-0.959l37.337-2.461
		c3.841,6.551,12.916,21.718,20.005,31.178l26.692,35.951l0.073,0.098c1.985,2.671,5.158,4.266,8.491,4.266
		c0.866,0,1.733-0.107,2.577-0.32l21.161-5.334l63.159-16.603c4.632-1.218,7.411-5.977,6.193-10.613
		C483.527,384.398,481.137,382.021,478.074,381.232z M412.069,403.365l-20.396,5.141l-26.347-35.484
		c-8.629-11.517-20.946-32.948-21.071-33.163c-1.043-1.82-2.977-2.929-5.055-2.929c-0.128,0-0.256,0.004-0.384,0.012l-40.933,2.699
		c-4.856,0.31-9.711,0.635-14.565,0.96c-8.636,0.578-17.567,1.176-26.344,1.676l-102.365,5.849l-61.471,2.975l-20.447,0.955
		l-49.819,1.903c3.267-1.818,6.769-3.649,10.629-5.565l4.907-2.448l4.937-2.284c3.321-1.549,6.567-3.049,9.785-4.372
		c1.201-0.502,2.402-1.017,3.604-1.531c2.172-0.932,4.225-1.811,6.274-2.617l10.119-3.922c2.326-0.942,4.659-1.752,7.129-2.611
		c0.895-0.311,1.791-0.623,2.659-0.93l9.957-3.477c2.371-0.73,4.742-1.475,7.113-2.22c4.228-1.328,8.599-2.702,12.766-3.92
		c2.407-0.653,4.812-1.315,7.219-1.978c4.248-1.17,8.64-2.38,12.854-3.481l10.032-2.451l10.051-2.276
		c7.139-1.506,13.582-2.85,20.217-4.049c3.651-0.712,7.262-1.321,9.995-1.771c1.085-0.178,2.17-0.363,3.255-0.548
		c2.34-0.399,4.55-0.776,6.837-1.097l10.075-1.504l10.188-1.326c7.006-0.902,14.13-1.639,20.204-2.255l1.033-0.095
		c6.321-0.582,12.856-1.185,19.348-1.598c5.156-0.412,10.449-0.682,15.569-0.942c1.588-0.081,3.173-0.163,4.66-0.244l3.467-0.131
		c5.548-0.206,11.285-0.427,16.91-0.486l10.16-0.139l10.332,0.039h0.268c2.302,0,4.684,0.093,6.99,0.155
		c0.963,0.026,1.926,0.081,2.874,0.102l1.126,0.028c2.966,0.074,6.033,0.15,9.016,0.306l11.619,0.606
		c11.658,0.702,22.043,7.183,27.778,17.336c0.665,1.178,1.338,2.35,2.012,3.521c1.166,2.026,2.371,4.122,3.493,6.194
		c0.643,1.183,1.291,2.364,1.939,3.546c1.152,2.102,2.305,4.204,3.411,6.276l5.187,9.932l5.021,10.047l4.861,10.202l4.594,10.338
		c1.777,4.087,6.417,9.646,7.329,10.72c1.003,1.18,2.434,1.912,3.977,2.036l5.617,0.448l11.487,1.253
		c1.174,0.11,2.4,0.287,3.698,0.474c0.616,0.088,1.232,0.177,1.807,0.254l5.868,0.827c1.291,0.163,2.628,0.396,4.042,0.641
		l7.267,1.25l5.868,1.186c0.526,0.099,1.059,0.21,1.602,0.328L412.069,403.365z"/>
	<path fill="#cc0099" d="M326.078,379.173H14.781c-3.22,0-5.83,2.61-5.83,5.83s2.61,5.829,5.83,5.829h311.297
		c3.22,0,5.83-2.61,5.83-5.829S329.298,379.173,326.078,379.173z"/>
</svg>
