<svg width="512" height="512" viewBox="0 0 512 512" fill="none" xmlns="http://www.w3.org/2000/svg">
	<path fill="#cc0099" d="M335.221,110.846c3.526-28.65,11.993-51.661,14.356-57.689c18.097-10.093,29.94-28.242,29.94-49.382
		c0-2.603-2.111-4.714-4.714-4.714c-2.603,0-4.714,2.111-4.714,4.714c0,17.886-10.298,33.218-25.988,41.611
		c-0.018,0.007-0.033,0.018-0.051,0.026c-8.136,4.341-17.716,6.821-28.063,6.821c-30.338,0-54.102-21.285-54.102-48.458
		c0-2.603-2.111-4.714-4.714-4.714c-2.603,0-4.713,2.111-4.713,4.714c0,27.173-23.765,48.458-54.102,48.458
		c-10.327,0-19.89-2.471-28.016-6.797c-0.034-0.015-0.066-0.037-0.101-0.051c-15.688-8.394-25.986-23.725-25.986-41.61
		c0-2.603-2.111-4.714-4.714-4.714c-2.603,0-4.713,2.111-4.713,4.714c0,21.14,11.842,39.29,29.939,49.382
		c2.364,6.028,10.831,29.04,14.356,57.689c3.73,30.304,2.527,73.358-24.378,106.369c-38.621,47.384,4.367,146.838,6.215,151.049
		c0.776,1.767,2.505,2.819,4.317,2.819c0.633,0,1.276-0.128,1.892-0.399c2.384-1.046,3.468-3.826,2.423-6.211
		c-0.344-0.782-27.095-63.214-20.007-110.15l103.333,59.921v44.246c0,2.604,2.11,4.714,4.713,4.714s4.714-2.11,4.714-4.714v-44.246
		l102.874-59.921c7.088,46.936-20.007,109.368-20.351,110.15c-1.046,2.385-0.018,5.165,2.365,6.211
		c0.616,0.271,1.231,0.399,1.864,0.399c1.813,0,3.528-1.052,4.304-2.819c1.849-4.211,44.829-103.665,6.208-151.049
		C332.701,184.204,331.492,141.15,335.221,110.846z M257.171,306.08l-105.757-61.463c1.022-3.71,2.288-7.193,3.787-10.41
		c3.501,0.664,7.052,1.321,10.598,1.964c26.722,4.84,64.236,10.816,91.202,11.792c0.114,0.004,0.228,0.004,0.342,0
		c26.965-0.976,64.48-6.952,91.203-11.792c3.543-0.642,7.094-1.3,10.596-1.964c1.498,3.216,2.765,6.698,3.787,10.41L257.171,306.08z
		 M346.864,226.894c-26.363,4.775-63.297,10.665-89.693,11.641c-26.397-0.976-63.33-6.866-89.692-11.641
		c-2.419-0.438-4.84-0.884-7.247-1.334c0.584-0.812,1.184-1.612,1.818-2.389c23.001-28.221,32.129-67.546,26.397-113.724
		c-2.717-21.889-8.077-40.293-11.76-51.127c6.736,2.16,14.022,3.339,21.668,3.339c26.919,0,49.421-14.524,58.816-35.625
		c9.394,21.102,31.896,35.625,58.816,35.625c7.646,0,14.933-1.179,21.668-3.339c-3.683,10.834-9.043,29.238-11.76,51.127
		c-5.733,46.178,3.395,85.503,26.397,113.724c0.633,0.777,1.234,1.577,1.818,2.389C351.702,226.011,349.282,226.456,346.864,226.894
		z"/>
	<path fill="#cc0099" d="M148.275,139.915c0-1.013-0.326-1.946-0.87-2.714c-0.338-0.581-0.793-1.095-1.359-1.493l-38.244-26.868
		c-2.129-1.496-5.069-0.983-6.566,1.148c-1.497,2.13-0.983,5.07,1.147,6.566l26.542,18.647H55.888c-2.603,0-4.714,2.111-4.714,4.714
		s2.111,4.714,4.714,4.714h71.808l-25.281,17.44c-2.143,1.478-2.681,4.414-1.203,6.556c0.914,1.326,2.387,2.037,3.884,2.037
		c0.923,0,1.855-0.27,2.672-0.834l36.655-25.287C146.614,144.136,148.275,142.223,148.275,139.915z"/>
	<path fill="#cc0099" d="M457.485,135.201h-72.208l26.542-18.647c2.131-1.496,2.644-4.436,1.148-6.566
		c-1.495-2.13-4.435-2.645-6.566-1.148l-37.756,26.524c-2.035,0.522-3.547,2.353-3.547,4.551c0,2.603,2.111,4.714,4.714,4.714h0.092
		l36.529,25.2c0.817,0.564,1.75,0.834,2.673,0.834c1.497,0,2.969-0.711,3.884-2.037c1.478-2.143,0.939-5.078-1.203-6.556
		l-25.281-17.44h70.979c2.603,0,4.714-2.111,4.714-4.714S460.088,135.201,457.485,135.201z"/>
</svg>
