<svg width="512" height="512" viewBox="0 0 512 512" fill="none" xmlns="http://www.w3.org/2000/svg">
	<path fill="#cc0099" d="M130.813,144.988c31.329,0,56.817-25.488,56.817-56.818c0-31.329-25.488-56.817-56.817-56.817
		c-31.329,0-56.818,25.488-56.818,56.817C73.995,119.499,99.484,144.988,130.813,144.988z M130.813,43.083
		c24.861,0,45.087,20.226,45.087,45.087c0,24.862-20.226,45.088-45.087,45.088c-24.862,0-45.087-20.226-45.087-45.088
		C85.726,63.309,105.951,43.083,130.813,43.083z"/>
	<path fill="#cc0099" d="M326.232,419.441l-9.105-33.108l-14.18-49.286l-4.759-16.242l-4.911-15.965
		c-0.7-2.335-3.249-7.757-11.895-7.791l-55.624-1.427c-0.043-0.001-0.087-0.003-0.13-0.003c-4.209-0.013-8.394-0.311-12.825-0.628
		c-4.54-0.323-9.236-0.657-13.958-0.657c-0.385,0-0.768,0.002-1.131,0.007l-20.385,0.167l-17.823-31.716
		c-3.675-6.596-7.361-13.064-10.945-19.2l-11.028-19.074c-2.616-4.487-5.208-8.988-7.799-13.489
		c-4.66-8.094-9.478-16.462-14.368-24.609l-11.231-18.911c-3.206-5.453-6.54-10.932-9.763-16.23l-1.648-2.71
		c-1.633-2.684-4.598-4.351-7.74-4.351c-1.658,0-3.282,0.456-4.698,1.317c-2.291,1.391-3.836,3.709-4.25,6.385l-0.336,2.274
		c-0.68,4.55-1.152,9.197-1.418,13.814c-0.179,2.27-0.271,4.54-0.313,6.708c-0.019,0.737-0.007,1.478-0.032,2.219
		c-0.05,1.433-0.034,2.866-0.034,4.277c0,0.048,0,0.096,0,0.145c0,1.445-0.054,2.903-0.054,4.361c0,2.736-0.077,5.566,0.073,8.362
		c0.079,1.41,0.134,2.834,0.189,4.256c0.105,2.687,0.212,5.465,0.471,8.161c0.125,1.399,0.243,2.803,0.361,4.206
		c0.22,2.628,0.441,5.256,0.706,7.86c0.006,0.053,0.011,0.106,0.018,0.159l1.511,11.68c0.353,2.976,0.843,5.851,1.316,8.632
		c0.181,1.062,0.362,2.124,0.535,3.19c0.008,0.052,0.017,0.103,0.027,0.154c0.183,0.96,0.361,1.922,0.54,2.883
		c0.526,2.836,1.07,5.768,1.688,8.54c0.828,4.095,1.763,8.06,2.547,11.301c0.563,2.522,1.219,4.977,1.852,7.35
		c0.34,1.274,0.68,2.549,1.006,3.831c0.015,0.059,0.031,0.118,0.049,0.177l3.118,10.854c0.017,0.057,0.034,0.115,0.053,0.172
		c0.399,1.244,0.791,2.492,1.183,3.739c0.739,2.348,1.479,4.697,2.286,7.1c0.431,1.227,0.851,2.457,1.272,3.689
		c0.779,2.279,1.586,4.635,2.466,6.995c0.459,1.204,0.907,2.414,1.355,3.624c0.838,2.256,1.702,4.589,2.646,6.914
		c0.494,1.2,0.978,2.408,1.462,3.614c0.887,2.207,1.805,4.492,2.79,6.768l4.444,10.122c8.927,20.33,28.249,33.817,50.444,35.199
		l9.306,0.549c1.621,0.098,3.241,0.214,4.861,0.331c3.004,0.218,6.111,0.441,9.19,0.54c1.125,0.044,2.25,0.092,3.374,0.139
		c3.509,0.15,7.136,0.303,10.673,0.308c4.72,0.08,9.533,0.14,14.105,0.031l6.962-0.098c0.052,0,0.104-0.001,0.157-0.003l7.011-0.285
		c0.803-0.04,1.605-0.069,2.407-0.098c1.528-0.056,3.108-0.115,4.661-0.236l6.887-0.466c3.148-0.172,6.283-0.481,9.316-0.78
		c0.181-0.017,0.362-0.036,0.543-0.053c2.959,4.229,6.13,8.578,9.448,12.955c0.03,0.039,0.061,0.078,0.091,0.115l6.926,8.673
		c1.554,1.952,3.161,3.97,4.897,5.89l6.217,7.133c1.412,1.581,2.887,3.129,4.314,4.627c0.773,0.812,1.546,1.624,2.271,2.4
		c2.21,2.411,4.603,4.735,6.917,6.981l3.631,3.545c0.052,0.05,0.104,0.1,0.157,0.148l3.631,3.293
		c2.355,2.201,4.881,4.326,7.323,6.38l0.583,0.49c2.914,2.405,5.748,4.586,8.662,6.665l1.863,1.331
		c1.545,1.103,3.364,1.686,5.26,1.686c2.92,0,5.677-1.419,7.369-3.793c1.564-2.191,2.069-4.943,1.38-7.58L326.232,419.441z
		 M313.627,428.755l-0.542-0.456c-2.434-2.048-4.734-3.982-6.929-6.032l-3.617-3.28l-3.577-3.493
		c-2.295-2.228-4.461-4.332-6.478-6.533c-0.789-0.843-1.588-1.683-2.389-2.522c-1.424-1.496-2.769-2.91-4.009-4.297l-6.242-7.161
		c-1.561-1.727-2.984-3.515-4.492-5.407l-6.892-8.632c-3.707-4.889-7.22-9.737-10.438-14.402l-0.584-0.873
		c-1.197-1.76-3.255-2.733-5.374-2.541c-1.35,0.122-2.699,0.255-4.048,0.387c-3.042,0.299-5.915,0.582-8.882,0.746l-7.022,0.475
		c-1.373,0.107-2.766,0.158-4.24,0.212c-0.853,0.031-1.704,0.062-2.504,0.102l-6.884,0.279l-6.943,0.097
		c-4.561,0.11-9.061,0.048-13.772-0.032c-3.388-0.004-6.893-0.154-10.284-0.298c-1.141-0.049-2.282-0.097-3.458-0.142
		c-2.88-0.094-5.736-0.301-8.76-0.518c-1.666-0.12-3.333-0.241-5.007-0.341l-9.295-0.549c-17.774-1.106-33.26-11.915-40.414-28.207
		l-4.432-10.096c-0.912-2.104-1.798-4.313-2.656-6.449c-0.496-1.236-0.993-2.472-1.489-3.678c-0.866-2.136-1.663-4.284-2.506-6.558
		c-0.46-1.242-0.921-2.485-1.378-3.683c-0.81-2.171-1.589-4.449-2.343-6.652c-0.431-1.261-0.862-2.524-1.277-3.702
		c-0.757-2.256-1.473-4.534-2.191-6.812c-0.389-1.239-0.779-2.479-1.175-3.715l-3.069-10.682c-0.331-1.299-0.675-2.59-1.02-3.882
		c-0.631-2.364-1.227-4.597-1.762-6.981c-0.78-3.233-1.684-7.064-2.498-11.081c-0.597-2.681-1.121-5.509-1.628-8.245
		c-0.178-0.952-0.354-1.903-0.534-2.854c-0.174-1.071-0.356-2.137-0.537-3.203c-0.47-2.759-0.914-5.364-1.24-8.106L87.31,217.3
		c-0.255-2.51-0.467-5.044-0.68-7.577c-0.119-1.423-0.239-2.847-0.369-4.305c-0.231-2.404-0.327-4.896-0.431-7.535
		c-0.057-1.489-0.115-2.978-0.197-4.442c-0.133-2.47-0.133-5.021-0.133-7.721c0-1.496-0.001-2.991-0.024-4.474
		c0.012-1.289,0.058-2.596,0.104-3.903c0.026-0.771,0.052-1.542,0.075-2.353c0.039-2,0.14-4.06,0.303-6.121
		c0.004-0.041,0.006-0.082,0.01-0.123c0.147-2.545,0.363-5.1,0.647-7.639c2.479,4.083,4.989,8.24,7.42,12.373l11.257,18.957
		c4.85,8.078,9.641,16.401,14.274,24.448c2.602,4.52,5.204,9.04,7.821,13.527l11.03,19.077c3.556,6.089,7.202,12.488,10.851,19.035
		l19.532,34.753c1.047,1.863,3.028,2.993,5.16,2.992l23.871-0.195c4.63-0.059,9.247,0.274,14.138,0.622
		c4.409,0.314,8.967,0.638,13.551,0.656l55.629,1.427c0.049,0.001,0.193,0.003,0.244,0.003c0.362,0,0.637,0.02,0.837,0.046
		l4.722,15.351l4.73,16.143l9.467,32.816l4.685,16.368l9.074,32.997l2.455,9.238C316.119,430.778,314.877,429.786,313.627,428.755z"
		/>
	<path fill="#cc0099" d="M296.779,469.487h-64.517V393.24c0-3.24-2.626-5.865-5.865-5.865H96.022L51.096,243.686
		c-0.765-2.448-3.034-4.115-5.599-4.115H5.865c-3.24,0-5.865,2.626-5.865,5.865s2.625,5.865,5.865,5.865h35.321L86.112,394.99
		c0.765,2.448,3.034,4.115,5.598,4.115h128.822v76.247c0,3.24,2.626,5.865,5.865,5.865h70.382c3.24,0,5.865-2.626,5.865-5.865
		C302.644,472.113,300.019,469.487,296.779,469.487z"/>
	<path fill="#cc0099" d="M494.821,231.747c32.98-39.575,4.411-78.898-6.344-93.702c-10.242-14.099-17.527-46.099,6.53-71.947
		c2.207-2.372,2.074-6.082-0.298-8.29c-2.371-2.207-6.08-2.074-8.289,0.298c-28.85,31-19.87,69.713-7.433,86.834
		c15.809,21.76,30.871,50.439,6.823,79.297c-31.859,38.229-1.886,92.064-0.595,94.337c1.082,1.902,3.064,2.97,5.106,2.97
		c0.981,0,1.977-0.248,2.891-0.766c2.817-1.6,3.803-5.181,2.203-7.997C495.139,312.293,468.107,263.803,494.821,231.747z"/>
	<path fill="#cc0099" d="M330.115,138.044c-10.242-14.099-17.527-46.099,6.53-71.947c2.207-2.372,2.074-6.082-0.297-8.29
		c-2.371-2.207-6.081-2.074-8.29,0.298c-28.85,31-19.87,69.713-7.432,86.834c15.808,21.76,30.87,50.439,6.821,79.298
		c-31.858,38.229-1.886,92.064-0.594,94.336c1.081,1.902,3.064,2.97,5.105,2.97c0.982,0,1.977-0.248,2.891-0.766
		c2.817-1.6,3.803-5.181,2.203-7.997c-0.276-0.487-27.307-48.977-0.594-81.032C369.439,192.172,340.871,152.848,330.115,138.044z"/>
	<path fill="#cc0099" d="M405.639,152.901c-2.208-2.372-5.92-2.505-8.289-0.298c-2.371,2.207-2.504,5.918-0.298,8.289
		c24.057,25.849,16.772,57.849,6.53,71.948c-10.755,14.804-39.323,54.127-6.344,93.702c26.592,31.909-0.239,80.404-0.595,81.036
		c-1.598,2.816-0.612,6.394,2.204,7.995c0.914,0.519,1.909,0.766,2.891,0.766c2.041,0,4.024-1.068,5.105-2.969
		c1.292-2.273,31.264-56.107-0.594-94.338c-24.047-28.857-8.986-57.536,6.823-79.297C425.51,222.613,434.49,183.9,405.639,152.901z"
		/>
</svg>
