<svg width="512" height="512" viewBox="0 0 512 512" fill="none" xmlns="http://www.w3.org/2000/svg">
	<path fill="#cc0099" d="M144.188,331.262c-0.964,0-1.706-0.018-2.396-0.056c-2.415-0.182-4.818,0.201-6.845,0.539
		c-1.374,0.23-2.671,0.447-3.784,0.447h-1.405c-0.138,0-0.272-0.006-0.399-0.01c-0.249-0.009-0.487-0.016-0.71-0.016
		c-0.597,0-2.414,0-4.16,1.164c-1.879,1.252-2.954,3.341-2.952,5.732c0.003,3.032,1.887,5.433,4.582,6.105l2.973,1.997
		c3.558,2.394,7.237,4.869,10.883,7.255l14.822,9.78c1.494,0.982,2.985,1.967,4.476,2.953c3.399,2.248,6.914,4.572,10.401,6.803
		l44.76,28.924l29.997,18.959c3.072,1.94,7.01,2.213,10.439,0.567l33.029-15.954l48.657-24.176c1.56,1.229,3.122,2.452,4.693,3.654
		l30.097,23.153c1.174,0.897,2.344,1.8,3.513,2.703c2.187,1.689,4.375,3.378,6.571,5.012l20.269,15.233l10.18,7.521
		c1.415,1.046,3.091,1.599,4.849,1.599c2.579,0,5.033-1.238,6.565-3.312c1.473-1.993,1.958-4.512,1.324-6.942l-0.418-1.573
		c-0.668-2.497-1.436-5.019-2.381-7.796l-0.47-1.32c-0.678-1.913-1.378-3.889-2.17-5.812c-0.755-1.947-1.76-4.48-2.848-6.871
		l-0.71-1.618c-0.733-1.683-1.491-3.423-2.307-5.033l-3.062-6.303c-0.033-0.069-0.068-0.136-0.104-0.204l-4.879-9.106
		c-0.037-0.069-0.076-0.138-0.116-0.206L400,376.323c-0.796-1.355-1.616-2.635-2.408-3.873c-0.413-0.644-0.825-1.288-1.232-1.941
		c-0.029-0.046-0.058-0.091-0.088-0.136l-3.672-5.537c-0.026-0.038-0.051-0.077-0.078-0.114l-3.774-5.41
		c-0.025-0.036-0.051-0.072-0.077-0.107l-3.889-5.313c-0.867-1.171-1.754-2.315-2.642-3.46c-0.46-0.594-0.921-1.187-1.352-1.75
		c-0.92-1.221-1.856-2.367-2.762-3.476c-0.466-0.569-0.931-1.138-1.385-1.707c-1.404-1.765-2.85-3.456-4.258-5.102l-0.345-0.406
		c-1.288-1.516-2.619-3.082-4.01-4.604c-6.878-7.526-16.673-11.842-26.873-11.842c-3.534,0-7.037,0.51-10.426,1.521l-18.726,5.628
		c-0.041,0.013-0.082,0.025-0.123,0.039l-5.816,1.887c-1.374,0.432-2.693,0.904-3.969,1.359c-0.663,0.235-1.324,0.472-2.028,0.715
		l-0.607,0.213c-1.751,0.615-3.563,1.252-5.306,1.939l-5.726,2.186c-0.045,0.017-0.089,0.035-0.133,0.053l-5.598,2.296
		c-2.609,1.036-5.151,2.171-7.61,3.27c-1.253,0.56-2.506,1.12-3.767,1.666c-0.058,0.025-0.116,0.051-0.174,0.079l-6.415,3.031
		c-1.565,0.74-3.184,1.505-4.738,2.315l-5.408,2.738c-1.244,0.618-2.466,1.281-3.687,1.946c-0.612,0.334-1.224,0.667-1.921,1.038
		c-0.581,0.319-1.164,0.635-1.747,0.949c-0.078,0.042-0.156,0.084-0.234,0.126l-3.721-1.547c-0.039-0.017-0.079-0.032-0.118-0.047
		l-8.41-3.282c-0.043-0.017-0.085-0.033-0.127-0.048c-0.998-0.363-1.993-0.731-2.988-1.099c-1.859-0.687-3.719-1.374-5.661-2.053
		c-1-0.338-1.993-0.683-2.986-1.029c-1.865-0.649-3.793-1.319-5.715-1.92l-0.246-0.079c-2.81-0.909-5.716-1.848-8.574-2.681
		c-2.804-0.866-5.657-1.655-8.415-2.419l-0.592-0.164c-1.96-0.552-3.938-1.03-5.85-1.493c-1.106-0.267-2.214-0.535-3.334-0.822
		c-2.716-0.684-5.962-1.474-9.405-2.143l-1.309-0.265c-2.628-0.532-5.345-1.083-8.117-1.569c-0.043-0.007-0.086-0.015-0.13-0.021
		l-9.456-1.441c-0.041-0.006-0.082-0.012-0.122-0.017c-1.976-0.259-3.909-0.424-5.778-0.583c-1.325-0.113-2.656-0.226-4.048-0.38
		c-1.681-0.172-3.296-0.194-4.515-0.194c-0.546,0-1.093,0.005-1.64,0.01C145.222,331.257,144.706,331.262,144.188,331.262z
		 M147.378,342.909c1,0,2.177,0.016,3.281,0.129c1.443,0.159,2.869,0.281,4.29,0.403c1.8,0.154,3.501,0.299,5.197,0.518l9.329,1.422
		c2.599,0.457,5.103,0.965,7.753,1.501l1.359,0.275c3.207,0.623,6.259,1.366,8.801,2.007c1.149,0.294,2.306,0.574,3.462,0.854
		c1.892,0.458,3.678,0.889,5.454,1.389l0.619,0.171c2.677,0.741,5.445,1.507,8.172,2.348c2.784,0.812,5.609,1.726,8.34,2.609
		l0.3,0.096c1.799,0.562,3.557,1.173,5.417,1.821c1.029,0.358,2.057,0.715,3.027,1.042c1.815,0.636,3.612,1.3,5.409,1.964
		c0.993,0.367,1.985,0.733,2.98,1.095l8.289,3.235l6.249,2.596c1.658,0.689,3.541,0.576,5.105-0.306
		c0.847-0.478,1.704-0.94,2.56-1.401c0.612-0.331,1.225-0.661,1.754-0.953c0.654-0.347,1.304-0.701,1.954-1.054
		c1.093-0.596,2.186-1.193,3.339-1.766l5.503-2.787c1.415-0.736,2.863-1.421,4.397-2.146l6.327-2.99
		c1.272-0.551,2.537-1.117,3.803-1.682c2.455-1.097,4.774-2.134,7.215-3.103l5.592-2.293l5.719-2.183
		c1.598-0.63,3.229-1.203,4.956-1.809l0.574-0.202c0.708-0.244,1.411-0.495,2.116-0.746c1.175-0.419,2.351-0.841,3.597-1.233
		l5.803-1.882l18.657-5.608c2.294-0.684,4.675-1.031,7.079-1.031c6.932,0,13.588,2.933,18.26,8.046
		c1.25,1.367,2.455,2.786,3.733,4.289l0.38,0.447c1.393,1.628,2.708,3.166,3.989,4.776c0.489,0.612,0.983,1.217,1.477,1.821
		c0.872,1.067,1.696,2.075,2.502,3.145c0.473,0.619,0.95,1.234,1.427,1.848c0.833,1.075,1.668,2.15,2.464,3.225l3.831,5.233
		l3.699,5.301l3.591,5.413c0.416,0.667,0.839,1.326,1.261,1.986c0.767,1.197,1.491,2.327,2.179,3.5l5.101,8.642l4.761,8.887
		l3.054,6.287c0.706,1.395,1.366,2.907,2.063,4.508c0.246,0.564,0.491,1.127,0.762,1.738c0.995,2.184,1.891,4.445,2.636,6.369
		c0.015,0.039,0.031,0.079,0.048,0.119c0.657,1.59,1.259,3.277,1.891,5.059l-21.846-16.397c-2.162-1.609-4.295-3.255-6.426-4.901
		c-1.186-0.916-2.372-1.832-3.546-2.729l-30.092-23.15c-2.233-1.709-4.437-3.452-6.642-5.195l-0.823-0.65
		c-1.051-0.831-2.33-1.257-3.617-1.257c-0.885,0-1.774,0.201-2.598,0.611l-41.004,20.398l-10.892,5.389l-32.555,15.725
		l-29.503-18.647l-44.733-28.907c-3.435-2.198-6.914-4.498-10.277-6.722c-1.5-0.991-3-1.983-4.494-2.965l-14.832-9.786
		c-0.879-0.576-1.761-1.157-2.643-1.741c0.676,0.002,1.403-0.003,2.104-0.01C146.356,342.914,146.867,342.909,147.378,342.909z"/>
	<path fill="#cc0099" d="M102.286,327.423c24.076,0,43.663-19.587,43.663-43.662c0-24.076-19.587-43.663-43.663-43.663
		s-43.663,19.587-43.663,43.663C58.623,307.836,78.21,327.423,102.286,327.423z M102.286,251.765
		c17.642,0,31.995,14.353,31.995,31.995c0,17.642-14.353,31.995-31.995,31.995S70.29,301.403,70.29,283.761
		C70.29,266.118,84.643,251.765,102.286,251.765z"/>
	<path fill="#cc0099" d="M430.5,466.716l-100.59-44.707c-1.646-0.731-3.538-0.662-5.125,0.189l-80.359,43.078l-231.819-150.3
		c-2.705-1.754-6.316-0.982-8.068,1.721c-1.753,2.704-0.982,6.316,1.721,8.068l66.236,42.944L4.59,468.793
		c-1.797,2.674-1.085,6.299,1.59,8.095c0.998,0.67,2.129,0.991,3.247,0.991c1.878,0,3.722-0.905,4.847-2.581l68.01-101.242
		L240.971,476.94c1.783,1.156,4.055,1.25,5.929,0.247l80.88-43.358l97.982,43.547c0.77,0.342,1.575,0.505,2.366,0.505
		c2.235,0,4.368-1.292,5.334-3.466C434.77,471.471,433.444,468.024,430.5,466.716z"/>
	<path fill="#cc0099" d="M442.562,155.228c0-23.364-19.009-42.373-42.373-42.373c-23.365,0-42.373,19.009-42.373,42.373
		s19.008,42.372,42.373,42.372C423.553,197.601,442.562,178.593,442.562,155.228z M400.189,185.933
		c-16.932,0-30.706-13.774-30.706-30.705c0-16.932,13.774-30.706,30.706-30.706s30.706,13.774,30.706,30.706
		C430.895,172.159,417.121,185.933,400.189,185.933z"/>
	<path fill="#cc0099" d="M400.165,108.189c3.221,0,5.834-2.612,5.834-5.834V51.022c0-3.221-2.612-5.834-5.834-5.834
		s-5.834,2.612-5.834,5.834v51.334C394.331,105.577,396.944,108.189,400.165,108.189z"/>
	<path fill="#cc0099" d="M394.331,210.857v51.334c0,3.221,2.612,5.834,5.834,5.834s5.834-2.612,5.834-5.834v-51.334
		c0-3.221-2.612-5.833-5.834-5.833S394.331,207.636,394.331,210.857z"/>
	<path fill="#cc0099" d="M505.166,150.19h-51.334c-3.221,0-5.833,2.612-5.833,5.834s2.612,5.833,5.833,5.833h51.334
		c3.221,0,5.834-2.612,5.834-5.833S508.388,150.19,505.166,150.19z"/>
	<path fill="#cc0099" d="M442.39,190.038c-2.279-2.278-5.971-2.278-8.25,0c-2.278,2.278-2.278,5.972,0,8.25l36.477,36.477
		c1.139,1.139,2.632,1.708,4.125,1.708c1.493,0,2.985-0.57,4.125-1.708c2.278-2.278,2.278-5.972,0-8.25L442.39,190.038z"/>
	<path fill="#cc0099" d="M432.246,118.687c1.493,0,2.986-0.569,4.125-1.708l36.476-36.476c2.278-2.278,2.278-5.972,0-8.25
		c-2.279-2.277-5.971-2.277-8.25,0l-36.476,36.477c-2.278,2.278-2.278,5.972,0,8.25
		C429.261,118.118,430.754,118.687,432.246,118.687z"/>
	<path fill="#cc0099" d="M293.997,161.856h51.334c3.221,0,5.834-2.612,5.834-5.833s-2.612-5.834-5.834-5.834h-51.334
		c-3.221,0-5.833,2.612-5.833,5.834S290.775,161.856,293.997,161.856z"/>
	<path fill="#cc0099" d="M358.665,190.038l-36.476,36.477c-2.278,2.278-2.278,5.971,0,8.25c1.139,1.139,2.632,1.708,4.125,1.708
		c1.493,0,2.985-0.57,4.125-1.708l36.476-36.477c2.278-2.278,2.278-5.972,0-8.25C364.636,187.761,360.943,187.761,358.665,190.038z"
		/>
	<path fill="#cc0099" d="M364.683,116.978c1.14,1.139,2.632,1.708,4.125,1.708c1.493,0,2.985-0.569,4.125-1.708
		c2.278-2.278,2.278-5.971,0-8.25l-36.476-36.477c-2.278-2.276-5.97-2.277-8.25,0c-2.278,2.278-2.278,5.972,0,8.25L364.683,116.978z
		"/>
</svg>
